<?xml version="1.0" encoding="UTF-8"?>
<svg width="90px" height="90px" viewBox="0 0 90 90" version="1.1" xmlns="http://www.w3.org/2000/svg" xmlns:xlink="http://www.w3.org/1999/xlink">
    <!-- Generator: Sketch 51.2 (57519) - http://www.bohemiancoding.com/sketch -->
    <title>news</title>
    <desc>Created with Sketch.</desc>
    <defs>
        <polygon id="path-1" points="0 0.399 54.7497 0.399 54.7497 55.1484 0 55.1484"></polygon>
        <polygon id="path-3" points="0 60.6013 64.918 60.6013 64.918 1.0003 0 1.0003"></polygon>
    </defs>
    <g id="news" stroke="none" stroke-width="1" fill="none" fill-rule="evenodd">
        <g id="Group-30" transform="translate(13.000000, 14.000000)">
            <g id="Group-3" transform="translate(0.000000, 0.601300)">
                <mask id="mask-2" fill="white">
                    <use xlink:href="#path-1"></use>
                </mask>
                <g id="Clip-2"></g>
                <path d="M54.7497,27.7734 C54.7497,42.8924 42.4937,55.1484 27.3747,55.1484 C12.2567,55.1484 -0.0003,42.8924 -0.0003,27.7734 C-0.0003,12.6554 12.2567,0.3984 27.3747,0.3984 C42.4937,0.3984 54.7497,12.6554 54.7497,27.7734" id="Fill-1" fill="#EDECED" mask="url(#mask-2)"></path>
            </g>
            <mask id="mask-4" fill="white">
                <use xlink:href="#path-3"></use>
            </mask>
            <g id="Clip-5"></g>
            <polygon id="Fill-4" fill="#BEC0CC" mask="url(#mask-4)" points="58.594 14.8433 60.531 14.8433 60.531 8.8743 58.594 8.8743"></polygon>
            <polygon id="Fill-6" fill="#BEC0CC" mask="url(#mask-4)" points="56.593 12.8123 62.593 12.8123 62.593 10.8433 56.593 10.8433"></polygon>
            <polygon id="Fill-7" fill="#BEC0CC" mask="url(#mask-4)" points="5.688 40.7183 7.625 40.7183 7.625 34.7493 5.688 34.7493"></polygon>
            <polygon id="Fill-8" fill="#BEC0CC" mask="url(#mask-4)" points="3.687 38.6873 9.687 38.6873 9.687 36.7183 3.687 36.7183"></polygon>
            <path d="M34.2644,50.5105 L26.9304,50.5105 C25.3434,50.5105 24.5334,48.9145 24.2434,48.1775 L1.5974,48.1775 L1.5974,11.3435 L9.4304,11.3435 L9.4304,12.3435 L2.5974,12.3435 L2.5974,47.1775 L24.9734,47.1775 L25.0774,47.5385 C25.0834,47.5595 25.6644,49.5105 26.9304,49.5105 L34.2644,49.5105 C35.5184,49.5105 36.1114,47.5595 36.1174,47.5395 L36.2204,47.1775 L58.5974,47.1775 L58.5974,12.3445 L51.7644,12.3445 L51.7644,11.3445 L59.5974,11.3445 L59.5974,48.1775 L36.9524,48.1775 C36.6614,48.9145 35.8514,50.5105 34.2644,50.5105" id="Fill-9" fill="#605F5F" mask="url(#mask-4)"></path>
            <path d="M30.6804,12.1355 C30.6804,12.1355 32.0554,9.6355 34.9304,9.0105 C37.8054,8.3855 54.5554,9.0105 54.5554,9.0105 L54.5554,43.0105 L35.3054,43.0105 C35.3054,43.0105 33.0554,43.8855 32.6804,45.5105 L30.6804,45.5105" id="Fill-10" fill="#FEFEFE" mask="url(#mask-4)"></path>
            <path d="M33.0778,46.0105 L30.6808,46.0105 L30.6808,45.0105 L32.3148,45.0105 C32.9558,43.4045 35.0298,42.5805 35.1238,42.5445 L35.3058,42.5105 L54.0558,42.5105 L54.0558,9.4925 C51.2958,9.3985 37.5498,8.9525 35.0368,9.4985 C32.4298,10.0665 31.1308,12.3545 31.1178,12.3775 L30.2418,11.8945 C30.3028,11.7835 31.7628,9.1875 34.8238,8.5225 C37.7248,7.8885 53.8878,8.4845 54.5738,8.5105 L55.0558,8.5295 L55.0558,43.5105 L35.4058,43.5105 C35.0268,43.6765 33.4418,44.4355 33.1678,45.6225 L33.0778,46.0105 Z" id="Fill-11" fill="#231F20" mask="url(#mask-4)"></path>
            <path d="M30.6804,12.1355 C30.6804,12.1355 29.3054,9.6355 26.4304,9.0105 C23.5554,8.3855 6.8054,9.0105 6.8054,9.0105 L6.8054,43.0105 L26.0554,43.0105 C26.0554,43.0105 28.3054,43.8855 28.6804,45.5105 L30.6804,45.5105" id="Fill-12" fill="#FEFEFE" mask="url(#mask-4)"></path>
            <path d="M30.6804,46.0105 L28.2834,46.0105 L28.1934,45.6225 C27.9184,44.4355 26.3334,43.6765 25.9544,43.5105 L6.3054,43.5105 L6.3054,8.5295 L6.7864,8.5105 C7.4744,8.4855 23.6324,7.8895 26.5364,8.5225 C29.5984,9.1875 31.0584,11.7835 31.1184,11.8945 L30.2434,12.3775 C30.2304,12.3545 28.9314,10.0665 26.3244,9.4985 C23.8144,8.9525 10.0654,9.3985 7.3054,9.4925 L7.3054,42.5105 L26.2374,42.5445 C26.3304,42.5805 28.4054,43.4045 29.0454,45.0105 L30.6804,45.0105 L30.6804,46.0105 Z" id="Fill-13" fill="#231F20" mask="url(#mask-4)"></path>
            <path d="M30.6804,30.6355 L30.6804,45.1355 C19.4704,39.1735 11.0554,38.0105 11.0554,38.0105 L11.0554,2.5735 C11.0554,2.5735 29.6184,4.8855 30.6804,12.8855 L30.6804,30.6355 Z" id="Fill-14" fill="#FEFEFE" mask="url(#mask-4)"></path>
            <path d="M11.5554,37.5857 C13.3794,37.9077 20.7874,39.4347 30.1804,44.3087 L30.1804,12.8857 C29.2844,6.1727 14.6304,3.6127 11.5554,3.1487 L11.5554,37.5857 Z M31.1804,45.9677 L30.4464,45.5767 C19.4414,39.7247 11.0704,38.5177 10.9874,38.5057 L10.5554,38.4457 L10.5554,2.0067 L11.1174,2.0767 C11.8904,2.1737 30.0754,4.5317 31.1764,12.8197 L31.1804,45.9677 Z" id="Fill-15" fill="#231F20" mask="url(#mask-4)"></path>
            <polygon id="Fill-16" fill="#FEFEFE" mask="url(#mask-4)" points="44.6804 32.3855 44.6804 54.8855 50.1804 50.0105 55.8054 59.8855 60.8054 56.5105 54.5554 47.7605 63.5554 47.3855"></polygon>
            <path d="M50.3103,49.2273 L55.9723,59.1693 L60.1003,56.3833 L53.6123,47.2993 L62.1933,46.9423 L45.1803,33.4213 L45.1803,53.7743 L50.3103,49.2273 Z M55.6383,60.6013 L50.0503,50.7933 L44.1803,55.9973 L44.1803,31.3493 L64.9173,47.8293 L55.4983,48.2213 L61.5103,56.6373 L55.6383,60.6013 Z" id="Fill-17" fill="#231F20" mask="url(#mask-4)"></path>
            <path d="M35.6804,37.448 C35.8674,37.386 38.4934,36.073 38.4934,36.073" id="Fill-18" fill="#FEFEFE" mask="url(#mask-4)"></path>
            <path d="M35.8386,37.9226 L35.5226,36.9736 L35.6806,37.4476 L35.5116,36.9776 C35.6746,36.9136 37.0536,36.2336 38.2696,35.6256 L38.7166,36.5206 C37.7246,37.0166 36.0306,37.8586 35.8386,37.9226" id="Fill-19" fill="#231F20" mask="url(#mask-4)"></path>
            <path d="M38.4929,32.8855 L34.4929,32.8855" id="Fill-20" fill="#FEFEFE" mask="url(#mask-4)"></path>
            <polygon id="Fill-21" fill="#231F20" mask="url(#mask-4)" points="34.493 33.3853 38.493 33.3853 38.493 32.3853 34.493 32.3853"></polygon>
            <path d="M38.4929,29.8855 L35.6799,27.9485" id="Fill-22" fill="#FEFEFE" mask="url(#mask-4)"></path>
            <polygon id="Fill-23" fill="#231F20" mask="url(#mask-4)" points="38.2097 30.2976 35.3967 28.3606 35.9637 27.5356 38.7757 29.4736"></polygon>
            <path d="M40.8054,27.948 L38.8684,24.573" id="Fill-24" fill="#FEFEFE" mask="url(#mask-4)"></path>
            <polygon id="Fill-25" fill="#231F20" mask="url(#mask-4)" points="40.3718 28.197 38.4348 24.822 39.3018 24.324 41.2388 27.699"></polygon>
            <path d="M43.3054,27.3855 L43.3054,23.6975" id="Fill-26" fill="#FEFEFE" mask="url(#mask-4)"></path>
            <polygon id="Fill-27" fill="#231F20" mask="url(#mask-4)" points="42.805 27.3853 43.805 27.3853 43.805 23.6973 42.805 23.6973"></polygon>
            <path d="M46.3679,27.948 L48.1799,25.198" id="Fill-28" fill="#FEFEFE" mask="url(#mask-4)"></path>
            <polygon id="Fill-29" fill="#231F20" mask="url(#mask-4)" points="46.7849 28.2234 45.9509 27.6724 47.7639 24.9224 48.5969 25.4734"></polygon>
        </g>
    </g>
</svg>