<?xml version="1.0" encoding="utf-8"?>
<!-- Generator: Adobe Illustrator 22.1.0, SVG Export Plug-In . SVG Version: 6.00 Build 0)  -->
<svg version="1.1" id="Layer_1" xmlns="http://www.w3.org/2000/svg" xmlns:xlink="http://www.w3.org/1999/xlink" x="0px" y="0px"
	 viewBox="0 0 90 90" style="enable-background:new 0 0 90 90;" xml:space="preserve">
<style type="text/css">
	.st0{filter:url(#Adobe_OpacityMaskFilter);}
	.st1{fill:#FFFFFF;}
	.st2{mask:url(#mask-2_1_);fill:#EDECED;}
	.st3{fill:#BEC0CC;}
	.st4{stroke:#FFFFFF;stroke-width:0.3;}
</style>
<title>speeches &amp; presentations copy</title>
<desc>Created with Sketch.</desc>
<g id="speeches-_x26_-presentations-copy">
	<g id="Group-19" transform="translate(11.000000, 15.000000)">
		<g id="Group-3" transform="translate(4.000000, 0.052200)">
			<g id="Clip-2">
			</g>
			<defs>
				<filter id="Adobe_OpacityMaskFilter" filterUnits="userSpaceOnUse" x="0.6" y="0.9" width="54.8" height="54.8">
					<feColorMatrix  type="matrix" values="1 0 0 0 0  0 1 0 0 0  0 0 1 0 0  0 0 0 1 0"/>
				</filter>
			</defs>
			<mask maskUnits="userSpaceOnUse" x="0.6" y="0.9" width="54.8" height="54.8" id="mask-2_1_">
				<g class="st0">
					<polygon id="path-1_1_" class="st1" points="0.6,0.9 55.4,0.9 55.4,55.7 0.6,55.7 					"/>
				</g>
			</mask>
			<path id="Fill-1" class="st2" d="M55.4,28.3c0,15.1-12.3,27.4-27.4,27.4c-15.1,0-27.4-12.3-27.4-27.4S12.9,0.9,28,0.9
				C43.1,0.9,55.4,13.2,55.4,28.3"/>
		</g>
		<polygon id="Fill-4" class="st3" points="63.2,14.8 65.2,14.8 65.2,8.9 63.2,8.9 		"/>
		<polygon id="Fill-6" class="st3" points="61.2,12.8 67.2,12.8 67.2,10.8 61.2,10.8 		"/>
		<polygon id="Fill-7" class="st3" points="2,41.3 3.9,41.3 3.9,35.4 2,35.4 		"/>
		<polygon id="Fill-8" class="st3" points="0,39.3 6,39.3 6,37.3 0,37.3 		"/>
	</g>
	<path id="Combined-Shape" class="st1" d="M56.8,34v9.8H66c-0.2,5.1-4.3,9.2-9.5,9.2c-5.2,0-9.5-4.3-9.5-9.5s4.3-9.5,9.5-9.5
		C56.6,34,56.7,34,56.8,34z"/>
	<g id="noun_DATA-REPRESENTATION_1666118" transform="translate(17.000000, 18.000000)">
		<g id="Group">
			<path id="Shape" class="st4" d="M52.8,4.1H30.2V2.3C30.2,1,29.2,0,28,0s-2.2,1-2.2,2.3v1.8H3.2C1.4,4.1,0,5.5,0,7.3
				c0,1.7,1.3,3,2.9,3.2v29.9c0,0.4,0.3,0.7,0.7,0.7h22.9L13.2,54.9c-0.3,0.3-0.2,0.7,0,0.9c0.3,0.3,0.7,0.2,0.9,0L27.3,42v11.6
				c0,0.4,0.3,0.7,0.7,0.7s0.7-0.3,0.7-0.7V42.1l13.1,13.7c0.2,0.3,0.7,0.3,0.9,0c0.3-0.3,0.3-0.7,0-0.9L29.4,41h23
				c0.4,0,0.7-0.3,0.7-0.7V10.4c1.6-0.1,2.9-1.5,2.9-3.2C56,5.5,54.6,4.1,52.8,4.1z M27.1,2.3c0-0.5,0.4-0.9,0.9-0.9
				s0.9,0.4,0.9,0.9v1.8h-1.9L27.1,2.3L27.1,2.3z M51.8,39.7H27.9c0,0,0,0,0,0H4.2V10.5h47.5V39.7z M52.8,9.1c-8,0-46.2,0-49.6,0
				c-1,0-1.9-0.8-1.9-1.9s0.8-1.9,1.9-1.9c10.5,0,39.3,0,49.6,0c1,0,1.9,0.8,1.9,1.9S53.8,9.1,52.8,9.1z"/>
			<path id="Shape_1_" class="st4" d="M39.5,35c5.2,0,9.5-4.3,9.5-9.5c0-0.4-0.3-0.7-0.7-0.7h-8.2v-8.2c0-0.4-0.3-0.7-0.7-0.7
				c-5.2,0-9.5,4.3-9.5,9.5C30,30.7,34.3,35,39.5,35z M38.8,17.4v8.1c0,0.4,0.3,0.7,0.7,0.7h8.1c-0.3,4.2-3.9,7.5-8.1,7.5
				c-4.5,0-8.2-3.7-8.2-8.2C31.3,21.2,34.6,17.7,38.8,17.4z"/>
			<path id="Shape_2_" class="st4" d="M41.7,24h7.6c0,0,0,0,0,0c0.5,0,0.8-0.5,0.6-0.9c-0.7-4.2-4-7.5-8.2-8.1
				c-0.4-0.1-0.8,0.3-0.8,0.7v7.6C41,23.7,41.3,24,41.7,24z M42.4,16.5c3,0.7,5.4,3.1,6.1,6.1h-6.1V16.5z"/>
			<path id="Shape_3_" d="M7.5,37C7.8,37,8,36.7,8,36.4V22.6C8,22.3,7.8,22,7.5,22S7,22.3,7,22.6v13.7C7,36.7,7.2,37,7.5,37z"/>
			<path id="Shape_4_" d="M12.5,22c-0.3,0-0.5,0.3-0.5,0.7v14.7c0,0.4,0.2,0.7,0.5,0.7s0.5-0.3,0.5-0.7V22.7
				C13,22.3,12.8,22,12.5,22z"/>
			<path id="Shape_5_" d="M17.5,21c-0.3,0-0.5,0.3-0.5,0.7v15.7c0,0.4,0.2,0.7,0.5,0.7s0.5-0.3,0.5-0.7V21.7
				C18,21.3,17.8,21,17.5,21z"/>
			<path id="Shape_6_" d="M21.5,20c-0.3,0-0.5,0.3-0.5,0.7v16.7c0,0.4,0.2,0.7,0.5,0.7s0.5-0.3,0.5-0.7V20.7
				C22,20.3,21.8,20,21.5,20z"/>
			<path id="Shape_7_" d="M26.5,19c-0.3,0-0.5,0.3-0.5,0.7v17.7c0,0.4,0.2,0.7,0.5,0.7s0.5-0.3,0.5-0.7V19.7
				C27,19.3,26.8,19,26.5,19z"/>
			<path id="Shape_8_" class="st4" d="M7.6,20c0,0,0.1,0,0.1,0l17.4-3.4l-1.1,2.1c-0.2,0.3-0.1,0.8,0.2,0.9c0.3,0.2,0.7,0.1,0.9-0.3
				l1.7-3.3c0,0,0,0,0-0.1l0,0c0,0,0,0,0,0c0-0.1,0-0.1,0.1-0.2c0,0,0-0.1,0-0.1c0,0,0-0.1,0-0.1c0,0,0,0,0,0c0-0.1,0-0.2-0.1-0.2
				c0,0,0,0,0,0c-0.1-0.1-0.1-0.2-0.2-0.2l-3.1-1.9c-0.3-0.2-0.7-0.1-0.9,0.3c-0.2,0.3-0.1,0.8,0.2,0.9l1.6,1l-17,3.4
				c-0.3,0.1-0.6,0.4-0.5,0.8C7.1,19.8,7.3,20,7.6,20z"/>
		</g>
	</g>
</g>
</svg>
