<?xml version="1.0" encoding="utf-8"?>
<!-- Generator: Adobe Illustrator 22.1.0, SVG Export Plug-In . SVG Version: 6.00 Build 0)  -->
<svg version="1.1" id="Layer_1" xmlns="http://www.w3.org/2000/svg" xmlns:xlink="http://www.w3.org/1999/xlink" x="0px" y="0px"
	 viewBox="0 0 90 90" style="enable-background:new 0 0 90 90;" xml:space="preserve">
<style type="text/css">
	.st0{fill:#EDECED;}
	.st1{filter:url(#Adobe_OpacityMaskFilter);}
	.st2{fill:#FFFFFF;}
	.st3{mask:url(#mask-2_1_);fill:#BEC0CC;}
	.st4{filter:url(#Adobe_OpacityMaskFilter_1_);}
	.st5{mask:url(#mask-2_2_);fill:#BEC0CC;}
	.st6{filter:url(#Adobe_OpacityMaskFilter_2_);}
	.st7{mask:url(#mask-2_3_);fill:#BEC0CC;}
	.st8{filter:url(#Adobe_OpacityMaskFilter_3_);}
	.st9{mask:url(#mask-2_4_);fill:#BEC0CC;}
	.st10{filter:url(#Adobe_OpacityMaskFilter_4_);}
	.st11{mask:url(#mask-2_5_);fill:#231F20;}
	.st12{filter:url(#Adobe_OpacityMaskFilter_5_);}
	.st13{mask:url(#mask-2_6_);fill:#231F20;}
	.st14{filter:url(#Adobe_OpacityMaskFilter_6_);}
	.st15{mask:url(#mask-2_7_);fill:#231F20;}
	.st16{filter:url(#Adobe_OpacityMaskFilter_7_);}
	.st17{mask:url(#mask-2_8_);fill:#231F20;}
	.st18{filter:url(#Adobe_OpacityMaskFilter_8_);}
	.st19{mask:url(#mask-2_9_);fill:#231F20;}
	.st20{filter:url(#Adobe_OpacityMaskFilter_9_);}
	.st21{mask:url(#mask-2_10_);fill:#231F20;}
	.st22{filter:url(#Adobe_OpacityMaskFilter_10_);}
	.st23{mask:url(#mask-2_11_);fill:#231F20;}
	.st24{filter:url(#Adobe_OpacityMaskFilter_11_);}
	.st25{mask:url(#mask-2_12_);fill:#231F20;}
	.st26{filter:url(#Adobe_OpacityMaskFilter_12_);}
	.st27{mask:url(#mask-2_13_);fill:#FFFFFF;}
	.st28{filter:url(#Adobe_OpacityMaskFilter_13_);}
	.st29{mask:url(#mask-2_14_);fill:#231F20;}
	.st30{filter:url(#Adobe_OpacityMaskFilter_14_);}
	.st31{mask:url(#mask-2_17_);fill:#231F20;}
</style>
<title>uba foundation</title>
<desc>Created with Sketch.</desc>
<g id="uba-foundation">
	<g id="Group-20" transform="translate(11.000000, 16.000000)">
		<path id="Fill-1" class="st0" d="M59.6,28.5c0,15.1-12.3,27.4-27.4,27.4c-15.1,0-27.4-12.3-27.4-27.4c0-15.1,12.3-27.4,27.4-27.4
			C47.3,1.1,59.6,13.3,59.6,28.5"/>
		<g id="Clip-4">
		</g>
		<defs>
			<filter id="Adobe_OpacityMaskFilter" filterUnits="userSpaceOnUse" x="63.4" y="9" width="1.9" height="6">
				<feColorMatrix  type="matrix" values="1 0 0 0 0  0 1 0 0 0  0 0 1 0 0  0 0 0 1 0"/>
			</filter>
		</defs>
		<mask maskUnits="userSpaceOnUse" x="63.4" y="9" width="1.9" height="6" id="mask-2_1_">
			<g class="st1">
				<polygon id="path-1_1_" class="st2" points="0,58.8 67.4,58.8 67.4,0 0,0 				"/>
			</g>
		</mask>
		<polygon id="Fill-3" class="st3" points="63.4,14.9 65.3,14.9 65.3,9 63.4,9 		"/>
		<defs>
			<filter id="Adobe_OpacityMaskFilter_1_" filterUnits="userSpaceOnUse" x="61.4" y="10.9" width="6" height="2">
				<feColorMatrix  type="matrix" values="1 0 0 0 0  0 1 0 0 0  0 0 1 0 0  0 0 0 1 0"/>
			</filter>
		</defs>
		<mask maskUnits="userSpaceOnUse" x="61.4" y="10.9" width="6" height="2" id="mask-2_2_">
			<g class="st4">
				<polygon id="path-1_2_" class="st2" points="0,58.8 67.4,58.8 67.4,0 0,0 				"/>
			</g>
		</mask>
		<polygon id="Fill-5" class="st5" points="61.4,12.9 67.4,12.9 67.4,10.9 61.4,10.9 		"/>
		<defs>
			<filter id="Adobe_OpacityMaskFilter_2_" filterUnits="userSpaceOnUse" x="21.6" y="52.9" width="1.9" height="6">
				<feColorMatrix  type="matrix" values="1 0 0 0 0  0 1 0 0 0  0 0 1 0 0  0 0 0 1 0"/>
			</filter>
		</defs>
		<mask maskUnits="userSpaceOnUse" x="21.6" y="52.9" width="1.9" height="6" id="mask-2_3_">
			<g class="st6">
				<polygon id="path-1_3_" class="st2" points="0,58.8 67.4,58.8 67.4,0 0,0 				"/>
			</g>
		</mask>
		<polygon id="Fill-6" class="st7" points="21.6,58.8 23.5,58.8 23.5,52.9 21.6,52.9 		"/>
		<defs>
			<filter id="Adobe_OpacityMaskFilter_3_" filterUnits="userSpaceOnUse" x="19.6" y="54.8" width="6" height="2">
				<feColorMatrix  type="matrix" values="1 0 0 0 0  0 1 0 0 0  0 0 1 0 0  0 0 0 1 0"/>
			</filter>
		</defs>
		<mask maskUnits="userSpaceOnUse" x="19.6" y="54.8" width="6" height="2" id="mask-2_4_">
			<g class="st8">
				<polygon id="path-1_4_" class="st2" points="0,58.8 67.4,58.8 67.4,0 0,0 				"/>
			</g>
		</mask>
		<polygon id="Fill-7" class="st9" points="19.6,56.8 25.6,56.8 25.6,54.8 19.6,54.8 		"/>
		<defs>
			<filter id="Adobe_OpacityMaskFilter_4_" filterUnits="userSpaceOnUse" x="33.2" y="44.7" width="19.3" height="5.7">
				<feColorMatrix  type="matrix" values="1 0 0 0 0  0 1 0 0 0  0 0 1 0 0  0 0 0 1 0"/>
			</filter>
		</defs>
		<mask maskUnits="userSpaceOnUse" x="33.2" y="44.7" width="19.3" height="5.7" id="mask-2_5_">
			<g class="st10">
				<polygon id="path-1_5_" class="st2" points="0,58.8 67.4,58.8 67.4,0 0,0 				"/>
			</g>
		</mask>
		<polygon id="Fill-8" class="st11" points="52.5,50.4 51.5,50.4 51.5,45.7 34.2,45.7 34.2,50.4 33.2,50.4 33.2,44.7 52.5,44.7 		
			"/>
		<defs>
			<filter id="Adobe_OpacityMaskFilter_5_" filterUnits="userSpaceOnUse" x="35.5" y="22.6" width="20.8" height="21.8">
				<feColorMatrix  type="matrix" values="1 0 0 0 0  0 1 0 0 0  0 0 1 0 0  0 0 0 1 0"/>
			</filter>
		</defs>
		<mask maskUnits="userSpaceOnUse" x="35.5" y="22.6" width="20.8" height="21.8" id="mask-2_6_">
			<g class="st12">
				<polygon id="path-1_6_" class="st2" points="0,58.8 67.4,58.8 67.4,0 0,0 				"/>
			</g>
		</mask>
		<path id="Fill-9" class="st13" d="M36.5,44.4h-1l0-7.8c0.1-0.4,2.7-8.7,9.3-9.4c4-0.4,5-2.2,5.7-3.4c0.4-0.7,0.8-1.3,1.6-1.3
			c1.7,0,3.7,1.1,4.3,2.8c0.5,1.6-5.1,6.6-7.5,8.7l-0.6-0.8c3.6-3,7.3-6.8,7.2-7.6c-0.4-1.3-2.1-2.1-3.4-2.1c-0.2,0-0.4,0.2-0.7,0.8
			c-0.7,1.3-2,3.4-6.4,3.8c-5.6,0.6-8.1,7.8-8.4,8.6V44.4z"/>
		<defs>
			<filter id="Adobe_OpacityMaskFilter_6_" filterUnits="userSpaceOnUse" x="48.8" y="9.4" width="11.5" height="35.9">
				<feColorMatrix  type="matrix" values="1 0 0 0 0  0 1 0 0 0  0 0 1 0 0  0 0 0 1 0"/>
			</filter>
		</defs>
		<mask maskUnits="userSpaceOnUse" x="48.8" y="9.4" width="11.5" height="35.9" id="mask-2_7_">
			<g class="st14">
				<polygon id="path-1_7_" class="st2" points="0,58.8 67.4,58.8 67.4,0 0,0 				"/>
			</g>
		</mask>
		<path id="Fill-10" class="st15" d="M49.8,45.2h-1V42l10.5-10V10.8c-1.6,0.6-4.2,1.9-4.2,3.3c0,0.8,0.1,1.7,0.1,2.4
			c0.1,1.5,0.2,2.6-0.2,3.3c-0.4,0.9-2.4,3.3-2.6,3.6l-0.8-0.6c0.6-0.7,2.2-2.8,2.5-3.4c0.2-0.4,0.1-1.6,0.1-2.8
			c0-0.8-0.1-1.6-0.1-2.5c0-2.6,5-4.3,5.6-4.5l0.7-0.2v23.1l-10.5,10V45.2z"/>
		<defs>
			<filter id="Adobe_OpacityMaskFilter_7_" filterUnits="userSpaceOnUse" x="37" y="49.1" width="2.5" height="1">
				<feColorMatrix  type="matrix" values="1 0 0 0 0  0 1 0 0 0  0 0 1 0 0  0 0 0 1 0"/>
			</filter>
		</defs>
		<mask maskUnits="userSpaceOnUse" x="37" y="49.1" width="2.5" height="1" id="mask-2_8_">
			<g class="st16">
				<polygon id="path-1_8_" class="st2" points="0,58.8 67.4,58.8 67.4,0 0,0 				"/>
			</g>
		</mask>
		<polygon id="Fill-11" class="st17" points="37,50.1 39.5,50.1 39.5,49.1 37,49.1 		"/>
		<defs>
			<filter id="Adobe_OpacityMaskFilter_8_" filterUnits="userSpaceOnUse" x="7.8" y="44.7" width="19.3" height="5.7">
				<feColorMatrix  type="matrix" values="1 0 0 0 0  0 1 0 0 0  0 0 1 0 0  0 0 0 1 0"/>
			</filter>
		</defs>
		<mask maskUnits="userSpaceOnUse" x="7.8" y="44.7" width="19.3" height="5.7" id="mask-2_9_">
			<g class="st18">
				<polygon id="path-1_9_" class="st2" points="0,58.8 67.4,58.8 67.4,0 0,0 				"/>
			</g>
		</mask>
		<polygon id="Fill-12" class="st19" points="27.2,50.4 26.2,50.4 26.2,45.7 8.8,45.7 8.8,50.4 7.8,50.4 7.8,44.7 27.2,44.7 		"/>
		<defs>
			<filter id="Adobe_OpacityMaskFilter_9_" filterUnits="userSpaceOnUse" x="4" y="22.6" width="20.8" height="21.8">
				<feColorMatrix  type="matrix" values="1 0 0 0 0  0 1 0 0 0  0 0 1 0 0  0 0 0 1 0"/>
			</filter>
		</defs>
		<mask maskUnits="userSpaceOnUse" x="4" y="22.6" width="20.8" height="21.8" id="mask-2_10_">
			<g class="st20">
				<polygon id="path-1_10_" class="st2" points="0,58.8 67.4,58.8 67.4,0 0,0 				"/>
			</g>
		</mask>
		<path id="Fill-13" class="st21" d="M24.8,44.4h-1v-7.6c-0.3-0.8-2.8-8-8.4-8.6C11,27.8,9.8,25.6,9,24.4c-0.3-0.6-0.5-0.8-0.7-0.8
			c-1.3,0-2.9,0.9-3.4,2.2c-0.1,0.8,3.6,4.6,7.2,7.6l-0.6,0.8C9.1,32,3.5,27,4,25.4c0.6-1.8,2.7-2.8,4.3-2.8c0.8,0,1.2,0.6,1.6,1.3
			c0.7,1.2,1.7,2.9,5.7,3.4c6.6,0.7,9.2,9,9.3,9.4l0,0.1V44.4z"/>
		<defs>
			<filter id="Adobe_OpacityMaskFilter_10_" filterUnits="userSpaceOnUse" x="0" y="9.4" width="11.5" height="35.9">
				<feColorMatrix  type="matrix" values="1 0 0 0 0  0 1 0 0 0  0 0 1 0 0  0 0 0 1 0"/>
			</filter>
		</defs>
		<mask maskUnits="userSpaceOnUse" x="0" y="9.4" width="11.5" height="35.9" id="mask-2_11_">
			<g class="st22">
				<polygon id="path-1_11_" class="st2" points="0,58.8 67.4,58.8 67.4,0 0,0 				"/>
			</g>
		</mask>
		<path id="Fill-14" class="st23" d="M11.5,45.2h-1v-2.8L0,32.4V9.4l0.7,0.2c0.6,0.2,5.6,1.9,5.6,4.5c0,0.9-0.1,1.7-0.1,2.5
			c-0.1,1.2-0.2,2.4,0.1,2.8C6.5,20,8.1,22,8.7,22.7l-0.8,0.6c-0.2-0.3-2.2-2.7-2.6-3.6C5,19.1,5.1,18,5.1,16.5
			c0-0.7,0.1-1.6,0.1-2.4c0-1.4-2.7-2.7-4.2-3.3V32l10.5,10V45.2z"/>
		<defs>
			<filter id="Adobe_OpacityMaskFilter_11_" filterUnits="userSpaceOnUse" x="20.8" y="49.1" width="2.5" height="1">
				<feColorMatrix  type="matrix" values="1 0 0 0 0  0 1 0 0 0  0 0 1 0 0  0 0 0 1 0"/>
			</filter>
		</defs>
		<mask maskUnits="userSpaceOnUse" x="20.8" y="49.1" width="2.5" height="1" id="mask-2_12_">
			<g class="st24">
				<polygon id="path-1_12_" class="st2" points="0,58.8 67.4,58.8 67.4,0 0,0 				"/>
			</g>
		</mask>
		<polygon id="Fill-15" class="st25" points="20.8,50.1 23.3,50.1 23.3,49.1 20.8,49.1 		"/>
		<defs>
			<filter id="Adobe_OpacityMaskFilter_12_" filterUnits="userSpaceOnUse" x="18.4" y="7.8" width="25.4" height="21">
				<feColorMatrix  type="matrix" values="1 0 0 0 0  0 1 0 0 0  0 0 1 0 0  0 0 0 1 0"/>
			</filter>
		</defs>
		<mask maskUnits="userSpaceOnUse" x="18.4" y="7.8" width="25.4" height="21" id="mask-2_13_">
			<g class="st26">
				<polygon id="path-1_13_" class="st2" points="-3.6,58.8 63.8,58.8 63.8,0 -3.6,0 				"/>
			</g>
		</mask>
		<path id="Fill-16" class="st27" d="M43.7,15.8c-0.8,4.2-3.8,6.7-7,9.1c-1.7,1.3-3.4,2.5-5.1,3.7c-0.3,0.2-0.8,0.3-1,0.1
			c-2.9-2.1-5.8-4.2-8.5-6.5c-1.8-1.5-3-3.3-3.5-5.6c-1.1-4.4,2.4-8.8,6.9-8.7c2.1,0.1,3.6,1.2,4.9,2.8c0.2,0.3,0.4,0.6,0.7,0.9
			c0.4-0.5,0.7-1,1.1-1.4c3.3-3.8,8.3-2.5,10.4,0.9c0.6,0.9,0.8,2.1,1.2,3.1V15.8z"/>
		<defs>
			<filter id="Adobe_OpacityMaskFilter_13_" filterUnits="userSpaceOnUse" x="17.8" y="7.6" width="26.4" height="21.8">
				<feColorMatrix  type="matrix" values="1 0 0 0 0  0 1 0 0 0  0 0 1 0 0  0 0 0 1 0"/>
			</filter>
		</defs>
		<mask maskUnits="userSpaceOnUse" x="17.8" y="7.6" width="26.4" height="21.8" id="mask-2_14_">
			<g class="st28">
				<polygon id="path-1_14_" class="st2" points="-3.6,58.8 63.8,58.8 63.8,0 -3.6,0 				"/>
			</g>
		</mask>
		<path id="Fill-16_1_" class="st29" d="M31.1,28.4c2.9-2.3,5.8-4.5,8.6-6.9c1-0.9,1.8-2,2.4-3.2c1.4-2.4,1.3-4.8-0.2-7.1
			c-2.1-3.2-6.1-3.6-8.7-0.9c-0.5,0.5-0.8,1.1-1.2,1.6c-0.6,0.8-1.4,0.8-2,0c-0.3-0.4-0.5-0.8-0.8-1.1c-1-1.2-2.3-2.1-4-2.2
			c-3.7-0.2-6.9,3.5-6.3,7.2c0.3,1.8,1.1,3.3,2.3,4.6C24,23.7,27.7,25.8,31.1,28.4z M44.2,15.9c-0.8,4.4-3.9,7-7.2,9.5
			c-1.8,1.3-3.5,2.6-5.3,3.8c-0.3,0.2-0.9,0.3-1.1,0.1c-3-2.2-6-4.4-8.8-6.8c-1.8-1.5-3.1-3.5-3.7-5.8c-1.1-4.6,2.5-9.2,7.2-9.1
			c2.2,0.1,3.8,1.3,5.1,2.9c0.2,0.3,0.5,0.6,0.7,1c0.4-0.5,0.8-1,1.2-1.5c3.4-4,8.6-2.6,10.8,0.9c0.6,1,0.8,2.1,1.3,3.2V15.9z"/>
		<defs>
			<filter id="Adobe_OpacityMaskFilter_14_" filterUnits="userSpaceOnUse" x="20.6" y="11" width="4.5" height="5.4">
				<feColorMatrix  type="matrix" values="1 0 0 0 0  0 1 0 0 0  0 0 1 0 0  0 0 0 1 0"/>
			</filter>
		</defs>
		<mask maskUnits="userSpaceOnUse" x="20.6" y="11" width="4.5" height="5.4" id="mask-2_17_">
			<g class="st30">
				<polygon id="path-1_17_" class="st2" points="-3.6,58.8 63.8,58.8 63.8,0 -3.6,0 				"/>
			</g>
		</mask>
		<path id="Fill-19" class="st31" d="M20.6,15.5c0.2-2.1,1.5-3.8,3.5-4.4c0.4-0.1,0.8-0.3,1,0.3c0.1,0.5-0.2,0.6-0.7,0.7
			c-1.5,0.4-2.5,1.7-2.6,3.3c0,0.4,0.2,1-0.5,1C21,16.4,20.8,15.8,20.6,15.5"/>
	</g>
</g>
</svg>
