<?xml version="1.0" encoding="UTF-8"?>
<svg width="90px" height="90px" viewBox="0 0 90 90" version="1.1" xmlns="http://www.w3.org/2000/svg" xmlns:xlink="http://www.w3.org/1999/xlink">
    <!-- Generator: Sketch 51.1 (57501) - http://www.bohemiancoding.com/sketch -->
    <title>Mission</title>
    <desc>Created with Sketch.</desc>
    <defs></defs>
    <g id="Mission" stroke="none" stroke-width="1" fill="none" fill-rule="evenodd">
        <g transform="translate(13.000000, 13.000000)">
            <polygon id="Triangle-3" fill="#757575" fill-rule="nonzero" transform="translate(51.741243, 30.780907) rotate(-6.000000) translate(-51.741243, -30.780907) " points="48.6625529 22.6335572 60.1946789 38.9282567 43.2878066 37.1512728"></polygon>
            <rect id="Rectangle-34" fill="#D51709" fill-rule="nonzero" transform="translate(15.960799, 18.836930) rotate(58.000000) translate(-15.960799, -18.836930) " x="9.44181679" y="11.8939243" width="13.0379639" height="13.886012"></rect>
            <path d="M22.4402333,44.6780208 C27.3912376,44.6780208 32.2125837,37.4730276 32.2125837,30.7216581 C32.2125837,23.9702885 28.4489925,17.5618781 23.4979881,17.5618781 C18.5469838,17.5618781 14.283411,23.9702885 14.283411,30.7216581 C14.283411,37.4730276 17.4892289,44.6780208 22.4402333,44.6780208 Z" id="Oval-Copy" fill="#D51709" fill-rule="nonzero" transform="translate(23.247997, 31.119949) rotate(55.000000) translate(-23.247997, -31.119949) "></path>
            <path d="M9.97297285,18.3946897 C13.010539,18.3946897 15.9685565,13.9742444 15.9685565,9.83210882 C15.9685565,5.68997319 13.6594983,1.75825164 10.6219322,1.75825164 C7.58436605,1.75825164 4.96855652,5.68997319 4.96855652,9.83210882 C4.96855652,13.9742444 6.93540673,18.3946897 9.97297285,18.3946897 Z" id="Oval" fill="#D51709" fill-rule="nonzero" transform="translate(10.468557, 10.076471) rotate(55.000000) translate(-10.468557, -10.076471) "></path>
            <g id="Group-19" transform="translate(2.000000, 3.000000)" stroke="#222222" stroke-linejoin="round" stroke-width="2">
                <path d="M61.0075,36.8872 L42.4715,14.3022" id="Stroke-1" stroke-linecap="round"></path>
                <path d="M61.9977,62 L61.9977,39" id="Stroke-3" stroke-linecap="square"></path>
                <path d="M61.9958,38.6606 C60.3528,32.0706 40.5788,36.0006 40.5788,36.0006 C45.5218,31.0586 50.9958,9.0006 28.9978,9.0006 L28.9978,8.9996 L22.9978,8.9996" id="Stroke-5" stroke-linecap="round"></path>
                <path d="M7.1999,13.4795 C4.3289,14.0835 1.7409,13.4425 0.5929,11.5835 C-1.1001,8.8465 0.9579,4.5105 5.1839,1.8965 C9.4149,-0.7175 14.2139,-0.6155 15.9039,2.1185 C17.5939,4.8545 15.5369,9.1905 11.3089,11.8035" id="Stroke-7" stroke-linecap="round"></path>
                <path d="M23.4606,17.9385 C27.7556,17.0795 31.5666,18.0125 33.2506,20.7345 C35.7936,24.8485 32.6026,31.6055 26.0266,35.6765 C19.4506,39.7425 11.9776,39.5665 9.4346,35.4535 C7.8466,32.8875 8.5256,29.3365 10.8676,26.0405" id="Stroke-9" stroke-linecap="round"></path>
                <path d="M4.2839,13.8135 C4.2839,13.8135 7.4359,17.0085 11.8429,26.0405 C12.5519,27.1925 14.0219,27.7035 15.7589,27.5755" id="Stroke-11" stroke-linecap="round"></path>
                <path d="M16.1911,6.4502 C16.1911,6.4502 17.4471,10.3802 23.5541,18.3602 C24.5891,20.0382 23.9311,22.9232 21.7321,24.8482 C21.2381,25.2822 20.6641,25.6732 20.1231,26.0022" id="Stroke-13" stroke-linecap="round"></path>
                <path d="M30.8317,48.1411 L24.2577,37.5081" id="Stroke-15" stroke-linecap="round"></path>
                <path d="M28.5134,34.8833 L35.0824,45.5163" id="Stroke-17" stroke-linecap="round"></path>
            </g>
        </g>
    </g>
</svg>